<?xml version="1.0" standalone="no"?><!DOCTYPE svg PUBLIC "-//W3C//DTD SVG 1.1//EN" "http://www.w3.org/Graphics/SVG/1.1/DTD/svg11.dtd"><svg t="1618844140008" class="icon" viewBox="0 0 1024 1024" version="1.1" xmlns="http://www.w3.org/2000/svg" p-id="2757" xmlns:xlink="http://www.w3.org/1999/xlink" width="200" height="200"><defs><style type="text/css"></style></defs><path d="M853.32992 443.72992l-57.45664-172.43136c-5.9392-17.79712-26.17344-32.36864-44.94336-32.36864H477.87008l-136.54016 204.8-207.5648 88.92416C116.5312 540.0576 102.4 561.50016 102.4 580.25984V716.8h142.7968c14.10048 39.70048 51.59936 68.25984 96.13312 68.25984 44.544 0 82.04288-28.55936 96.14336-68.25984h183.20384c14.10048 39.70048 51.63008 68.25984 96.13312 68.25984 44.53376 0 82.03264-28.55936 96.13312-68.25984H921.6V512a68.2496 68.2496 0 0 0-68.27008-68.27008zM648.52992 307.2h87.33696l45.52704 136.52992H648.52992V307.2z m-134.13376 0h65.87392v136.52992H423.3728L514.39616 307.2zM341.32992 716.8A34.10944 34.10944 0 0 1 307.2 682.65984a34.0992 34.0992 0 0 1 34.12992-34.11968 34.0992 34.0992 0 0 1 34.14016 34.11968A34.10944 34.10944 0 0 1 341.32992 716.8zM716.8 716.8a34.0992 34.0992 0 0 1-34.12992-34.14016c0-18.86208 15.2576-34.11968 34.12992-34.11968s34.12992 15.2576 34.12992 34.11968A34.0992 34.0992 0 0 1 716.8 716.8z m136.52992-68.25984h-40.3968c-14.10048-39.68-51.59936-68.28032-96.13312-68.28032-44.50304 0-82.00192 28.60032-96.13312 68.28032h-183.1936c-14.14144-39.68-51.59936-68.28032-96.14336-68.28032-44.53376 0-82.00192 28.60032-96.13312 68.28032h-74.52672v-57.3952L355.328 512h498.00192v136.54016z" p-id="2758"></path></svg>