<?xml version="1.0" standalone="no"?><!DOCTYPE svg PUBLIC "-//W3C//DTD SVG 1.1//EN" "http://www.w3.org/Graphics/SVG/1.1/DTD/svg11.dtd"><svg t="1618844096618" class="icon" viewBox="0 0 1024 1024" version="1.1" xmlns="http://www.w3.org/2000/svg" p-id="6271" xmlns:xlink="http://www.w3.org/1999/xlink" width="200" height="200"><defs><style type="text/css"></style></defs><path d="M744.727273 187.112727h-55.389091c-1.861818 70.283636-59.112727 127.069091-130.327273 127.069091-70.749091 0-128.465455-56.785455-130.327273-127.069091H373.294545c-31.650909 0-57.250909 25.6-57.250909 57.250909v650.24c0 9.309091 7.447273 16.756364 16.756364 16.756364h451.956364c9.309091 0 16.756364-7.447273 16.756363-16.756364V244.363636c0-31.650909-25.6-57.250909-56.785454-57.250909z" fill="#cdcdcd" p-id="6272"></path><path d="M285.323636 533.876364l-125.672727-125.207273c-8.378182-8.378182-8.378182-22.341818 0-30.72l171.752727-171.752727c22.341818-22.341818 58.647273-22.341818 80.989091 0l115.898182 163.374545-191.301818 143.825455-20.945455 20.945454c-8.378182 7.912727-22.341818 7.912727-30.72-0.465454zM834.56 533.876364l125.207273-125.207273c8.378182-8.378182 8.378182-22.341818 0-30.72l-171.752728-171.752727c-22.341818-22.341818-58.647273-22.341818-80.98909 0L591.127273 369.570909l191.301818 143.825455 20.945454 20.945454c8.843636 7.912727 22.807273 7.912727 31.185455-0.465454z" fill="#cdcdcd" p-id="6273"></path><path d="M731.694545 901.585455H274.618182c-21.876364 0-40.029091-18.152727-40.029091-40.029091v-360.261819c0-13.032727 10.24-23.272727 23.272727-23.272727s23.272727 10.24 23.272727 23.272727v353.745455h444.509091v-359.796364c0-13.032727 10.24-23.272727 23.272728-23.272727s23.272727 10.24 23.272727 23.272727v366.312728c-0.465455 21.876364-18.152727 40.029091-40.494546 40.029091z" fill="#cdcdcd" p-id="6274"></path><path d="M714.938182 145.687273h-80.058182c-1.861818 71.214545-60.043636 128.465455-131.723636 128.465454S373.294545 216.901818 371.432727 145.687273H291.374545" fill="#cdcdcd" p-id="6275"></path><path d="M503.156364 297.425455c-75.869091 0-140.101818-55.854545-152.669091-128.465455H291.374545c-13.032727 0-23.272727-10.24-23.272727-23.272727s10.24-23.272727 23.272727-23.272728h80.058182c12.567273 0 22.807273 10.24 23.272728 22.807273 1.396364 58.181818 49.803636 105.658182 108.450909 105.658182 58.181818 0 107.054545-47.476364 108.450909-105.658182 0.465455-12.567273 10.705455-22.807273 23.272727-22.807273h80.058182c13.032727 0 23.272727 10.24 23.272727 23.272728s-10.24 23.272727-23.272727 23.272727h-59.112727c-12.567273 72.610909-76.8 128.465455-152.669091 128.465455z" fill="#cdcdcd" p-id="6276"></path><path d="M241.570909 525.963636c-12.101818 0-23.272727-4.654545-32.116364-13.032727L82.850909 385.861818C74.472727 377.483636 69.818182 366.312727 69.818182 354.210909s4.654545-23.272727 13.032727-32.116364l192.698182-192.698181c9.309091-9.309091 23.738182-9.309091 33.047273 0s9.309091 23.738182 0 33.047272L116.829091 354.210909 242.036364 479.418182l48.872727-48.872727c9.309091-9.309091 23.738182-9.309091 33.047273 0s9.309091 23.738182 0 33.047272l-49.803637 49.803637c-8.843636 7.912727-20.48 12.567273-32.581818 12.567272zM766.138182 525.963636c-12.101818 0-23.272727-4.654545-32.116364-13.032727L684.218182 463.127273c-9.309091-9.309091-9.309091-23.738182 0-33.047273s23.738182-9.309091 33.047273 0l48.872727 48.872727L891.345455 353.745455l-191.767273-191.767273c-9.309091-9.309091-9.309091-23.738182 0-33.047273s23.738182-9.309091 33.047273 0l192.698181 192.698182c8.378182 8.378182 13.032727 20.014545 13.032728 32.116364s-4.654545 23.272727-13.032728 32.116363l-127.069091 127.069091c-8.378182 8.378182-20.014545 13.032727-32.116363 13.032727z" fill="#cdcdcd" p-id="6277"></path></svg>