<?xml version="1.0" standalone="no"?><!DOCTYPE svg PUBLIC "-//W3C//DTD SVG 1.1//EN" "http://www.w3.org/Graphics/SVG/1.1/DTD/svg11.dtd"><svg t="1609295855124" class="icon" viewBox="0 0 1024 1024" version="1.1" xmlns="http://www.w3.org/2000/svg" p-id="4344" xmlns:xlink="http://www.w3.org/1999/xlink" width="200" height="200"><defs><style type="text/css"></style></defs><path d="M919.8 479.6l-23.2-286.1c-2.7-33.6-29.1-60.1-62.6-63.1l-289.3-26c-2.4-0.3-5-0.3-7.4-0.3-18 0.3-34.8 7.4-47.6 20.2L124.2 489.9c-12.9 13-20.2 30.3-20.2 48.8s7.1 35.8 20.2 48.8l312.3 312.2c13.4 13.4 31.2 20.6 50.1 20.2 17.9-0.3 34.8-7.4 47.5-20.2L899.8 534c14.3-14.4 21.6-34.1 20-54.4z m-180.1-93.7c-28.1 28.1-73.6 28.1-101.7 0s-28.1-73.6 0-101.7c28.1-28.1 73.6-28.1 101.7 0 28.1 28.1 28.1 73.6 0 101.7z" fill="#151515" p-id="4345"></path></svg>