<?xml version="1.0" standalone="no"?><!DOCTYPE svg PUBLIC "-//W3C//DTD SVG 1.1//EN" "http://www.w3.org/Graphics/SVG/1.1/DTD/svg11.dtd"><svg t="1609296035467" class="icon" viewBox="0 0 1025 1024" version="1.1" xmlns="http://www.w3.org/2000/svg" p-id="8154" xmlns:xlink="http://www.w3.org/1999/xlink" width="200.1953125" height="200"><defs><style type="text/css"></style></defs><path d="M993.407379 698.432203c-110.655931-240.51185-297.087814-423.487735-330.943793-455.551715 21.183987-37.311977 93.503942-165.055897 99.071938-176.959889 6.527996-14.143991 17.023989-46.207971-21.119987-53.311967-38.207976-6.975996-63.42396-15.48799-84.543947-11.647993C634.623603 4.800637 602.943623 28.736622 521.599674 32.06462c-79.74395 3.199998-92.351942-30.911981-134.719916-29.951981C359.359775 2.752638 303.48781 6.400636 288.06382 11.776633 272.51183 17.344629 246.591846 35.264618 270.911831 72.128595 290.623818 101.760576 344.127785 200.512515 364.287772 237.888491 357.631776 243.776488 134.911916 443.520363 13.567992 737.280179c-28.735982 69.503957-8.639995 161.983899 31.67998 210.047869 71.999955 85.695946 164.031897 76.351952 173.311892 76.351952l602.815623 0c20.159987 0 128.12792-11.391993 176.12789-96.06394C1025.023359 879.104091 1041.535349 803.264138 993.407379 698.432203zM936.767415 875.648093c-41.983974 74.111954-136.447915 84.031947-154.111904 84.031947L255.167841 959.68004c-8.063995 0-88.639945 8.191995-151.615905-66.815958-35.327978-42.047974-39.359975-101.439937-14.207991-162.239899 106.175934-257.023839 347.519783-477.503702 353.343779-482.687698C425.023734 215.296505 381.311762 128.00056 371.967768 113.344569c-13.759991-21.631986-25.599984-43.135973-12.031992-47.99997 13.503992-4.735997 20.671987-6.463996 42.495973 0.512 25.471984 8.127995 48.12797 28.991982 117.887926 26.175984 71.231955-2.943998 92.223942-14.527991 110.271931-20.031987 17.343989-5.311997 37.375977-19.327988 55.999965-5.311997 5.311997 3.967998-18.303989 36.927977-23.999985 49.343969-4.863997 10.431993-60.159962 100.671937-78.655951 133.311917 29.631981 28.095982 239.167851 237.567852 335.99979 447.99972C962.111399 789.056147 960.895399 833.216119 936.767415 875.648093z" p-id="8155"></path><path d="M639.9996 384.0004 511.99968 512.00032 383.99976 384.0004 319.9998 448.00036 447.99972 576.00028 319.9998 576.00028 319.9998 640.00024 447.99972 640.00024 447.99972 704.0002 319.9998 704.0002 319.9998 768.00016 447.99972 768.00016 447.99972 832.00012 575.99964 832.00012 575.99964 768.00016 703.99956 768.00016 703.99956 704.0002 575.99964 704.0002 575.99964 640.00024 703.99956 640.00024 703.99956 576.00028 575.99964 576.00028 703.99956 448.00036Z" p-id="8156"></path></svg>